<svg xmlns="http://www.w3.org/2000/svg" viewBox="0 0 640 500"><defs><linearGradient id="sky" x2="0" y2="1"><stop stop-color="#d8dfd0"/><stop offset="1" stop-color="#f0e9dc"/></linearGradient><linearGradient id="water" x2="0" y2="1"><stop stop-color="#a8beb2"/><stop offset="1" stop-color="#d6ded1"/></linearGradient><filter id="glow"><feGaussianBlur stdDeviation="18"/></filter></defs><rect width="640" height="500" fill="url(#sky)"/><circle cx="396" cy="163" r="92" fill="#fbf6dc" opacity=".6" filter="url(#glow)"/><circle cx="396" cy="163" r="60" fill="#f6f0db"/><path d="M0 273 Q110 199 210 248 T420 258 T640 225 V500 H0" fill="#a6b7a4"/><path d="M0 316 Q188 245 349 279 T640 260 V500 H0" fill="url(#water)"/><g fill="none" stroke="#edf0e1" opacity=".55"><path d="M320 302H463 M346 313H438 M323 327H475 M351 344H426 M281 364H495 M327 390H462 M294 421H506"/><path d="M0 385 Q160 345 299 398 T640 370 M0 420 Q183 400 303 431 T640 426 M0 462 Q144 430 281 467 T640 465"/></g><path d="M0 390Q61 305 160 336 Q114 368 121 397Q108 460 0 500" fill="#c0cbb5"/><path d="M598 500Q560 426 600 355Q619 323 640 311V500" fill="#94aa95"/></svg>